<?xml version="1.0" encoding="utf-8" standalone="no"?>
<!DOCTYPE svg PUBLIC "-//W3C//DTD SVG 1.1//EN"
  "http://www.w3.org/Graphics/SVG/1.1/DTD/svg11.dtd">
<svg xmlns:xlink="http://www.w3.org/1999/xlink" width="432pt" height="288pt" viewBox="0 0 432 288" xmlns="http://www.w3.org/2000/svg" version="1.1">
 <metadata>
  <rdf:RDF xmlns:dc="http://purl.org/dc/elements/1.1/" xmlns:cc="http://creativecommons.org/ns#" xmlns:rdf="http://www.w3.org/1999/02/22-rdf-syntax-ns#">
   <cc:Work>
    <dc:type rdf:resource="http://purl.org/dc/dcmitype/StillImage"/>
    <dc:date>2023-01-10T11:21:16.312162</dc:date>
    <dc:format>image/svg+xml</dc:format>
    <dc:creator>
     <cc:Agent>
      <dc:title>Matplotlib v3.5.2, https://matplotlib.org/</dc:title>
     </cc:Agent>
    </dc:creator>
   </cc:Work>
  </rdf:RDF>
 </metadata>
 <defs>
  <style type="text/css">*{stroke-linejoin: round; stroke-linecap: butt}</style>
 </defs>
 <g id="figure_1">
  <g id="patch_1">
   <path d="M 0 288 
L 432 288 
L 432 0 
L 0 0 
L 0 288 
z
" style="fill: none"/>
  </g>
  <g id="axes_1">
   <g id="patch_2">
    <path d="M 54 252 
L 388.8 252 
L 388.8 34.56 
L 54 34.56 
z
" style="fill: #ffffff"/>
   </g>
   <g id="patch_3">
    <path d="M 195.124217 136.254184 
L 195.72574 124.968909 
L 197.523089 125.833534 
L 206.175322 88.373654 
L 206.189758 88.380598 
L 197.537525 125.840479 
L 199.334875 126.705105 
z
" clip-path="url(#p3d0929ca77)" style="stroke: #000000; stroke-linejoin: miter"/>
   </g>
   <g id="patch_4">
    <path d="M 190.965091 154.26114 
L 191.566613 142.975865 
L 193.363962 143.84049 
L 195.116999 136.250712 
L 195.131435 136.257656 
L 193.378399 143.847435 
L 195.175748 144.712061 
z
" clip-path="url(#p3d0929ca77)" style="fill: #808080; stroke-dasharray: 1,1.65; stroke-dashoffset: 0; stroke: #808080; stroke-linejoin: miter"/>
   </g>
   <g id="patch_5">
    <path d="M 130.095293 98.362108 
L 128.193112 87.381439 
L 130.087684 87.381439 
L 130.087684 44.45445 
L 130.102902 44.45445 
L 130.102902 87.381439 
L 131.997474 87.381439 
z
" clip-path="url(#p3d0929ca77)" style="stroke: #000000; stroke-linejoin: miter"/>
   </g>
   <g id="patch_6">
    <path d="M 130.095293 132.299802 
L 128.193112 121.319133 
L 130.087684 121.319133 
L 130.087684 98.362108 
L 130.102902 98.362108 
L 130.102902 121.319133 
L 131.997474 121.319133 
z
" clip-path="url(#p3d0929ca77)" style="fill: #808080; stroke-dasharray: 1,1.65; stroke-dashoffset: 0; stroke: #808080; stroke-linejoin: miter"/>
   </g>
   <g id="patch_7">
    <path d="M 102.465081 74.881137 
L 94.641563 75.676253 
L 94.970812 72.983671 
L 69.224173 66.426602 
L 69.226818 66.404974 
L 94.973457 72.962044 
L 95.302706 70.269462 
z
" clip-path="url(#p3d0929ca77)" style="stroke: #000000; stroke-linejoin: miter"/>
   </g>
   <g id="patch_8">
    <path d="M 327.922135 132.299802 
L 320.098617 133.094918 
L 320.427866 130.402336 
L 102.463759 74.891951 
L 102.466404 74.870323 
L 320.43051 130.380709 
L 320.759759 127.688127 
z
" clip-path="url(#p3d0929ca77)" style="fill: #808080; stroke-dasharray: 1,1.65; stroke-dashoffset: 0; stroke: #808080; stroke-linejoin: miter"/>
   </g>
   <g id="patch_9">
    <path d="M 227.616663 98.956002 
L 219.782646 99.494374 
L 220.154202 96.813283 
L 190.963598 88.387893 
L 190.966583 88.366359 
L 220.157187 96.791748 
L 220.528743 94.110658 
z
" clip-path="url(#p3d0929ca77)" style="stroke: #000000; stroke-linejoin: miter"/>
   </g>
   <g id="patch_10">
    <path d="M 267.052338 110.338464 
L 259.218321 110.876836 
L 259.589877 108.195745 
L 227.615171 98.96677 
L 227.618155 98.945235 
L 259.592861 108.17421 
L 259.964418 105.49312 
z
" clip-path="url(#p3d0929ca77)" style="fill: #808080; stroke-dasharray: 1,1.65; stroke-dashoffset: 0; stroke: #808080; stroke-linejoin: miter"/>
   </g>
   <g id="patch_11">
    <path d="M 101.721456 99.199542 
L 93.879858 99.405301 
L 94.305871 96.741133 
L 69.223785 88.387825 
L 69.227206 88.366426 
L 94.309293 96.719734 
L 94.735305 94.055567 
z
" clip-path="url(#p3d0929ca77)" style="stroke: #000000; stroke-linejoin: miter"/>
   </g>
   <g id="patch_12">
    <path d="M 267.052338 154.26114 
L 259.21074 154.466899 
L 259.636752 151.802732 
L 101.719745 99.210241 
L 101.723167 99.188842 
L 259.640174 151.781333 
L 260.066187 149.117165 
z
" clip-path="url(#p3d0929ca77)" style="fill: #808080; stroke-dasharray: 1,1.65; stroke-dashoffset: 0; stroke: #808080; stroke-linejoin: miter"/>
   </g>
   <g id="patch_13">
    <path d="M 150.906642 113.153301 
L 157.150858 106.304597 
L 157.897167 108.817711 
L 190.962093 88.367033 
L 190.968088 88.387219 
L 157.903161 108.837897 
L 158.64947 111.351011 
z
" clip-path="url(#p3d0929ca77)" style="stroke: #000000; stroke-linejoin: miter"/>
   </g>
   <g id="patch_14">
    <path d="M 84.442945 154.26114 
L 90.687161 147.412436 
L 91.433469 149.92555 
L 150.903645 113.143209 
L 150.90964 113.163394 
L 91.439464 149.945735 
L 92.185772 152.458849 
z
" clip-path="url(#p3d0929ca77)" style="fill: #808080; stroke-dasharray: 1,1.65; stroke-dashoffset: 0; stroke: #808080; stroke-linejoin: miter"/>
   </g>
   <g id="patch_15">
    <path d="M 130.095293 110.678848 
L 128.193112 99.698179 
L 130.087684 99.698179 
L 130.087684 66.415788 
L 130.102902 66.415788 
L 130.102902 99.698179 
L 131.997474 99.698179 
z
" clip-path="url(#p3d0929ca77)" style="stroke: #000000; stroke-linejoin: miter"/>
   </g>
   <g id="patch_16">
    <path d="M 130.095293 154.26114 
L 128.193112 143.280471 
L 130.087684 143.280471 
L 130.087684 110.678848 
L 130.102902 110.678848 
L 130.102902 143.280471 
L 131.997474 143.280471 
z
" clip-path="url(#p3d0929ca77)" style="fill: #808080; stroke-dasharray: 1,1.65; stroke-dashoffset: 0; stroke: #808080; stroke-linejoin: miter"/>
   </g>
   <g id="patch_17">
    <path d="M 173.278814 106.183149 
L 165.440273 105.806071 
L 165.960752 103.177085 
L 130.093203 88.387684 
L 130.097383 88.366568 
L 165.964933 103.155969 
L 166.485412 100.526983 
z
" clip-path="url(#p3d0929ca77)" style="stroke: #000000; stroke-linejoin: miter"/>
   </g>
   <g id="patch_18">
    <path d="M 236.617439 132.299802 
L 228.778898 131.922724 
L 229.299378 129.293738 
L 173.276723 106.193707 
L 173.280904 106.172591 
L 229.303558 129.272622 
L 229.824037 126.643636 
z
" clip-path="url(#p3d0929ca77)" style="fill: #808080; stroke-dasharray: 1,1.65; stroke-dashoffset: 0; stroke: #808080; stroke-linejoin: miter"/>
   </g>
   <g id="patch_19">
    <path d="M 211.958127 141.758426 
L 214.595978 131.099212 
L 216.172357 132.615866 
L 236.611108 88.371035 
L 236.62377 88.383217 
L 216.185019 132.628048 
L 217.761398 134.144702 
z
" clip-path="url(#p3d0929ca77)" style="stroke: #000000; stroke-linejoin: miter"/>
   </g>
   <g id="patch_20">
    <path d="M 206.18254 154.26114 
L 208.820391 143.601926 
L 210.39677 145.11858 
L 211.951796 141.752335 
L 211.964458 141.764517 
L 210.409432 145.130762 
L 211.985812 146.647416 
z
" clip-path="url(#p3d0929ca77)" style="fill: #808080; stroke-dasharray: 1,1.65; stroke-dashoffset: 0; stroke: #808080; stroke-linejoin: miter"/>
   </g>
   <g id="patch_21">
    <path d="M 111.783862 51.417545 
L 103.960343 52.212661 
L 104.289592 49.52008 
L 84.441623 44.465264 
L 84.444267 44.443636 
L 104.292237 49.498452 
L 104.621486 46.80587 
z
" clip-path="url(#p3d0929ca77)" style="stroke: #000000; stroke-linejoin: miter"/>
   </g>
   <g id="patch_22">
    <path d="M 343.139585 110.338464 
L 335.316066 111.13358 
L 335.645315 108.440998 
L 111.782539 51.428359 
L 111.785184 51.406732 
L 335.64796 108.419371 
L 335.977209 105.726789 
z
" clip-path="url(#p3d0929ca77)" style="fill: #808080; stroke-dasharray: 1,1.65; stroke-dashoffset: 0; stroke: #808080; stroke-linejoin: miter"/>
   </g>
   <g id="patch_23">
    <path d="M 288.633624 126.708881 
L 289.235146 115.423606 
L 291.032495 116.288232 
L 297.480018 88.373654 
L 297.494455 88.380598 
L 291.046932 116.295177 
L 292.844281 117.159802 
z
" clip-path="url(#p3d0929ca77)" style="stroke: #000000; stroke-linejoin: miter"/>
   </g>
   <g id="patch_24">
    <path d="M 282.269787 154.26114 
L 282.871309 142.975865 
L 284.668659 143.84049 
L 288.626405 126.705409 
L 288.640842 126.712354 
L 284.683095 143.847435 
L 286.480444 144.712061 
z
" clip-path="url(#p3d0929ca77)" style="fill: #808080; stroke-dasharray: 1,1.65; stroke-dashoffset: 0; stroke: #808080; stroke-linejoin: miter"/>
   </g>
   <g id="patch_25">
    <path d="M 341.363176 73.550973 
L 335.559904 65.937249 
L 337.136284 64.420595 
L 327.915804 44.460541 
L 327.928466 44.448359 
L 337.148946 64.408413 
L 338.725325 62.891759 
z
" clip-path="url(#p3d0929ca77)" style="stroke: #000000; stroke-linejoin: miter"/>
   </g>
   <g id="patch_26">
    <path d="M 358.357034 110.338464 
L 352.553762 102.72474 
L 354.130142 101.208086 
L 341.356845 73.557064 
L 341.369507 73.544882 
L 354.142804 101.195904 
L 355.719183 99.67925 
z
" clip-path="url(#p3d0929ca77)" style="fill: #808080; stroke-dasharray: 1,1.65; stroke-dashoffset: 0; stroke: #808080; stroke-linejoin: miter"/>
   </g>
   <g id="patch_27">
    <path d="M 282.500863 102.906857 
L 289.117611 96.83017 
L 289.716727 99.424048 
L 312.70228 88.366709 
L 312.707092 88.387543 
L 289.72154 99.444882 
L 290.320656 102.038759 
z
" clip-path="url(#p3d0929ca77)" style="stroke: #000000; stroke-linejoin: miter"/>
   </g>
   <g id="patch_28">
    <path d="M 267.052338 110.338464 
L 273.669085 104.261777 
L 274.268202 106.855654 
L 282.498457 102.89644 
L 282.50327 102.917274 
L 274.273014 106.876489 
L 274.87213 109.470366 
z
" clip-path="url(#p3d0929ca77)" style="fill: #808080; stroke-dasharray: 1,1.65; stroke-dashoffset: 0; stroke: #808080; stroke-linejoin: miter"/>
   </g>
   <g id="patch_29">
    <path d="M 295.85042 77.987007 
L 302.770621 72.6606 
L 303.230122 75.313151 
L 327.92029 66.405135 
L 327.923981 66.426441 
L 303.233813 75.334457 
L 303.693314 77.987007 
z
" clip-path="url(#p3d0929ca77)" style="stroke: #000000; stroke-linejoin: miter"/>
   </g>
   <g id="patch_30">
    <path d="M 145.312743 132.299802 
L 152.232943 126.973395 
L 152.692444 129.625946 
L 295.848575 77.976354 
L 295.852265 77.99766 
L 152.696135 129.647251 
L 153.155636 132.299802 
z
" clip-path="url(#p3d0929ca77)" style="fill: #808080; stroke-dasharray: 1,1.65; stroke-dashoffset: 0; stroke: #808080; stroke-linejoin: miter"/>
   </g>
   <g id="patch_31">
    <path d="M 252.485598 64.501379 
L 244.651173 63.9755 
L 245.195575 61.356625 
L 206.180354 44.464968 
L 206.184726 44.443932 
L 245.199948 61.33559 
L 245.744349 58.716714 
z
" clip-path="url(#p3d0929ca77)" style="stroke: #000000; stroke-linejoin: miter"/>
   </g>
   <g id="patch_32">
    <path d="M 358.357034 110.338464 
L 350.52261 109.812585 
L 351.067011 107.19371 
L 252.483411 64.511897 
L 252.487784 64.490862 
L 351.071384 107.172674 
L 351.615785 104.553799 
z
" clip-path="url(#p3d0929ca77)" style="fill: #808080; stroke-dasharray: 1,1.65; stroke-dashoffset: 0; stroke: #808080; stroke-linejoin: miter"/>
   </g>
   <g id="patch_33">
    <path d="M 238.809763 126.064972 
L 233.006492 118.451248 
L 234.582871 116.934594 
L 221.393659 88.383217 
L 221.40632 88.371035 
L 234.595533 116.922412 
L 236.171913 115.405759 
z
" clip-path="url(#p3d0929ca77)" style="stroke: #000000; stroke-linejoin: miter"/>
   </g>
   <g id="patch_34">
    <path d="M 251.834888 154.26114 
L 246.031617 146.647416 
L 247.607996 145.130762 
L 238.803432 126.071063 
L 238.816094 126.058881 
L 247.620658 145.11858 
L 249.197038 143.601926 
z
" clip-path="url(#p3d0929ca77)" style="fill: #808080; stroke-dasharray: 1,1.65; stroke-dashoffset: 0; stroke: #808080; stroke-linejoin: miter"/>
   </g>
   <g id="patch_35">
    <path d="M 344.61192 108.213636 
L 348.647056 98.508004 
L 349.986721 100.441366 
L 358.351654 88.369361 
L 358.362414 88.38489 
L 349.997481 100.456895 
L 351.337146 102.390257 
z
" clip-path="url(#p3d0929ca77)" style="stroke: #000000; stroke-linejoin: miter"/>
   </g>
   <g id="patch_36">
    <path d="M 343.139585 110.338464 
L 347.17472 100.632832 
L 348.514385 102.566194 
L 344.60654 108.205872 
L 344.6173 108.221401 
L 348.525146 102.581723 
L 349.864811 104.515085 
z
" clip-path="url(#p3d0929ca77)" style="fill: #808080; stroke-dasharray: 1,1.65; stroke-dashoffset: 0; stroke: #808080; stroke-linejoin: miter"/>
   </g>
   <g id="patch_37">
    <path d="M 270.702187 108.582682 
L 277.318934 102.505995 
L 277.918051 105.099872 
L 312.70228 88.366709 
L 312.707092 88.387543 
L 277.922863 105.120707 
L 278.521979 107.714584 
z
" clip-path="url(#p3d0929ca77)" style="stroke: #000000; stroke-linejoin: miter"/>
   </g>
   <g id="patch_38">
    <path d="M 267.052338 110.338464 
L 273.669085 104.261777 
L 274.268202 106.855654 
L 270.699781 108.572265 
L 270.704593 108.593099 
L 274.273014 106.876489 
L 274.87213 109.470366 
z
" clip-path="url(#p3d0929ca77)" style="fill: #808080; stroke-dasharray: 1,1.65; stroke-dashoffset: 0; stroke: #808080; stroke-linejoin: miter"/>
   </g>
   <g id="patch_39">
    <path d="M 268.463308 77.963576 
L 273.216441 68.960391 
L 274.399971 71.095432 
L 297.482483 44.445875 
L 297.491989 44.463024 
L 274.409477 71.112581 
L 275.593007 73.247622 
z
" clip-path="url(#p3d0929ca77)" style="stroke: #000000; stroke-linejoin: miter"/>
   </g>
   <g id="patch_40">
    <path d="M 221.399989 132.299802 
L 226.153122 123.296617 
L 227.336652 125.431658 
L 268.458555 77.955002 
L 268.468062 77.972151 
L 227.346158 125.448807 
L 228.529688 127.583848 
z
" clip-path="url(#p3d0929ca77)" style="fill: #808080; stroke-dasharray: 1,1.65; stroke-dashoffset: 0; stroke: #808080; stroke-linejoin: miter"/>
   </g>
   <g id="patch_41">
    <path d="M 260.070234 86.762358 
L 253.831747 79.902788 
L 255.31116 78.194756 
L 236.611497 44.46131 
L 236.62338 44.44759 
L 255.323043 78.181036 
L 256.802455 76.473004 
z
" clip-path="url(#p3d0929ca77)" style="stroke: #000000; stroke-linejoin: miter"/>
   </g>
   <g id="patch_42">
    <path d="M 297.487236 154.26114 
L 291.24875 147.40157 
L 292.728162 145.693538 
L 260.064292 86.769217 
L 260.076175 86.755498 
L 292.740045 145.679818 
L 294.219458 143.971786 
z
" clip-path="url(#p3d0929ca77)" style="fill: #808080; stroke-dasharray: 1,1.65; stroke-dashoffset: 0; stroke: #808080; stroke-linejoin: miter"/>
   </g>
   <g id="patch_43">
    <path d="M 195.124217 136.254184 
L 189.507372 144.153739 
L 188.553662 141.791241 
L 69.229326 242.11598 
L 69.221665 242.097004 
L 188.546001 141.772265 
L 187.592291 139.409767 
z
" clip-path="url(#p3d0929ca77)" style="stroke: #808080; stroke-linejoin: miter"/>
   </g>
   <g id="patch_44">
    <path d="M 130.095293 98.362108 
L 127.750761 109.163154 
L 126.134165 107.737394 
L 69.231988 242.112218 
L 69.219003 242.100766 
L 126.12118 107.725942 
L 124.504583 106.300182 
z
" clip-path="url(#p3d0929ca77)" style="stroke: #808080; stroke-linejoin: miter"/>
   </g>
   <g id="patch_45">
    <path d="M 102.465081 74.881137 
L 102.195494 86.193063 
L 100.37437 85.43914 
L 69.232809 242.10952 
L 69.218182 242.103464 
L 100.359742 85.433084 
L 98.538618 84.679161 
z
" clip-path="url(#p3d0929ca77)" style="stroke: #808080; stroke-linejoin: miter"/>
   </g>
   <g id="patch_46">
    <path d="M 227.616663 98.956002 
L 222.177689 107.110674 
L 221.172129 104.793387 
L 69.229534 242.115798 
L 69.221457 242.097186 
L 221.164052 104.774775 
L 220.158493 102.457488 
z
" clip-path="url(#p3d0929ca77)" style="stroke: #808080; stroke-linejoin: miter"/>
   </g>
   <g id="patch_47">
    <path d="M 101.721456 99.199542 
L 101.156366 110.488738 
L 99.356246 109.636205 
L 69.232725 242.109916 
L 69.218266 242.103068 
L 99.341787 109.629357 
L 97.541667 108.776824 
z
" clip-path="url(#p3d0929ca77)" style="stroke: #808080; stroke-linejoin: miter"/>
   </g>
   <g id="patch_48">
    <path d="M 150.906642 113.153301 
L 147.176969 123.11017 
L 145.77861 121.2654 
L 69.231111 242.113901 
L 69.21988 242.099083 
L 145.767378 121.250582 
L 144.369019 119.405811 
z
" clip-path="url(#p3d0929ca77)" style="stroke: #808080; stroke-linejoin: miter"/>
   </g>
   <g id="patch_49">
    <path d="M 130.095293 110.678848 
L 127.448623 121.333507 
L 125.873499 119.814137 
L 69.231821 242.112594 
L 69.21917 242.10039 
L 125.860848 119.801933 
L 124.285725 118.282563 
z
" clip-path="url(#p3d0929ca77)" style="stroke: #808080; stroke-linejoin: miter"/>
   </g>
   <g id="patch_50">
    <path d="M 173.278814 106.183149 
L 168.914266 115.587215 
L 167.642871 113.56011 
L 69.230602 242.114633 
L 69.22039 242.098351 
L 167.632659 113.543828 
L 166.361264 111.516724 
z
" clip-path="url(#p3d0929ca77)" style="stroke: #808080; stroke-linejoin: miter"/>
   </g>
   <g id="patch_51">
    <path d="M 211.958127 141.758426 
L 205.950965 149.035342 
L 205.121232 146.577314 
L 69.228828 242.116364 
L 69.222163 242.09662 
L 205.114567 146.557571 
L 204.284834 144.099543 
z
" clip-path="url(#p3d0929ca77)" style="stroke: #808080; stroke-linejoin: miter"/>
   </g>
   <g id="patch_52">
    <path d="M 111.783862 51.417545 
L 111.261767 62.711053 
L 109.458427 61.872808 
L 69.232738 242.109858 
L 69.218253 242.103126 
L 109.443943 61.866075 
L 107.640603 61.027831 
z
" clip-path="url(#p3d0929ca77)" style="stroke: #808080; stroke-linejoin: miter"/>
   </g>
   <g id="patch_53">
    <path d="M 288.633624 126.708881 
L 295.477579 132.23666 
L 294.17896 134.227496 
L 373.579699 242.098497 
L 373.569268 242.114487 
L 294.168529 134.243487 
L 292.86991 136.234323 
z
" clip-path="url(#p3d0929ca77)" style="stroke: #808080; stroke-linejoin: miter"/>
   </g>
   <g id="patch_54">
    <path d="M 341.363176 73.550973 
L 345.219803 83.406597 
L 343.393417 84.133526 
L 373.581818 242.103573 
L 373.567148 242.109411 
L 343.378747 84.139365 
L 341.55236 84.866294 
z
" clip-path="url(#p3d0929ca77)" style="stroke: #808080; stroke-linejoin: miter"/>
   </g>
   <g id="patch_55">
    <path d="M 282.500863 102.906857 
L 289.107594 109.006202 
L 287.730058 110.883319 
L 373.580016 242.098953 
L 373.568951 242.114031 
L 287.718993 110.898396 
L 286.341457 112.775513 
z
" clip-path="url(#p3d0929ca77)" style="stroke: #808080; stroke-linejoin: miter"/>
   </g>
   <g id="patch_56">
    <path d="M 295.85042 77.987007 
L 301.714161 85.503617 
L 300.150009 87.046412 
L 373.580765 242.100296 
L 373.568202 242.112688 
L 300.137445 87.058804 
L 298.573293 88.601599 
z
" clip-path="url(#p3d0929ca77)" style="stroke: #808080; stroke-linejoin: miter"/>
   </g>
   <g id="patch_57">
    <path d="M 252.485598 64.501379 
L 259.177926 70.403164 
L 257.827457 72.320806 
L 373.579907 242.098791 
L 373.56906 242.114193 
L 257.81661 72.336209 
L 256.46614 74.253851 
z
" clip-path="url(#p3d0929ca77)" style="stroke: #808080; stroke-linejoin: miter"/>
   </g>
   <g id="patch_58">
    <path d="M 238.809763 126.064972 
L 246.318464 129.333803 
L 245.347724 131.681811 
L 373.578382 242.097062 
L 373.570585 242.115922 
L 245.339927 131.700671 
L 244.369187 134.048678 
z
" clip-path="url(#p3d0929ca77)" style="stroke: #808080; stroke-linejoin: miter"/>
   </g>
   <g id="patch_59">
    <path d="M 344.61192 108.213636 
L 348.695017 117.877402 
L 346.886517 118.692166 
L 373.581746 242.10322 
L 373.56722 242.109764 
L 346.871991 118.69871 
L 345.063492 119.513474 
z
" clip-path="url(#p3d0929ca77)" style="stroke: #808080; stroke-linejoin: miter"/>
   </g>
   <g id="patch_60">
    <path d="M 270.702187 108.582682 
L 277.631458 113.884471 
L 276.364538 115.917402 
L 373.579571 242.098328 
L 373.569395 242.114656 
L 276.354362 115.933731 
L 275.087443 117.966662 
z
" clip-path="url(#p3d0929ca77)" style="stroke: #808080; stroke-linejoin: miter"/>
   </g>
   <g id="patch_61">
    <path d="M 268.463308 77.963576 
L 275.02438 84.164722 
L 273.632987 86.020432 
L 373.580071 242.099039 
L 373.568895 242.113945 
L 273.621812 86.035338 
L 272.230419 87.891048 
z
" clip-path="url(#p3d0929ca77)" style="stroke: #808080; stroke-linejoin: miter"/>
   </g>
   <g id="patch_62">
    <path d="M 260.070234 86.762358 
L 266.900043 92.326458 
L 265.596354 94.310381 
L 373.579719 242.098524 
L 373.569248 242.11446 
L 265.585883 94.326316 
L 264.282194 96.31024 
z
" clip-path="url(#p3d0929ca77)" style="stroke: #808080; stroke-linejoin: miter"/>
   </g>
   <g id="matplotlib.axis_1">
    <g id="xtick_1">
     <g id="line2d_1">
      <defs>
       <path id="mb9457f7cf7" d="M 0 0 
L 0 3.5 
" style="stroke: #000000; stroke-width: 0.8"/>
      </defs>
      <g>
       <use xlink:href="#mb9457f7cf7" x="69.225496" y="252" style="stroke: #000000; stroke-width: 0.8"/>
      </g>
     </g>
     <g id="text_1">
      <!-- 0.0 -->
      <g transform="translate(61.273933 266.598437)scale(0.1 -0.1)">
       <defs>
        <path id="DejaVuSans-30" d="M 2034 4250 
Q 1547 4250 1301 3770 
Q 1056 3291 1056 2328 
Q 1056 1369 1301 889 
Q 1547 409 2034 409 
Q 2525 409 2770 889 
Q 3016 1369 3016 2328 
Q 3016 3291 2770 3770 
Q 2525 4250 2034 4250 
z
M 2034 4750 
Q 2819 4750 3233 4129 
Q 3647 3509 3647 2328 
Q 3647 1150 3233 529 
Q 2819 -91 2034 -91 
Q 1250 -91 836 529 
Q 422 1150 422 2328 
Q 422 3509 836 4129 
Q 1250 4750 2034 4750 
z
" transform="scale(0.015625)"/>
        <path id="DejaVuSans-2e" d="M 684 794 
L 1344 794 
L 1344 0 
L 684 0 
L 684 794 
z
" transform="scale(0.015625)"/>
       </defs>
       <use xlink:href="#DejaVuSans-30"/>
       <use xlink:href="#DejaVuSans-2e" x="63.623047"/>
       <use xlink:href="#DejaVuSans-30" x="95.410156"/>
      </g>
     </g>
    </g>
    <g id="xtick_2">
     <g id="line2d_2">
      <g>
       <use xlink:href="#mb9457f7cf7" x="107.269119" y="252" style="stroke: #000000; stroke-width: 0.8"/>
      </g>
     </g>
     <g id="text_2">
      <!-- 2.5 -->
      <g transform="translate(99.317557 266.598437)scale(0.1 -0.1)">
       <defs>
        <path id="DejaVuSans-32" d="M 1228 531 
L 3431 531 
L 3431 0 
L 469 0 
L 469 531 
Q 828 903 1448 1529 
Q 2069 2156 2228 2338 
Q 2531 2678 2651 2914 
Q 2772 3150 2772 3378 
Q 2772 3750 2511 3984 
Q 2250 4219 1831 4219 
Q 1534 4219 1204 4116 
Q 875 4013 500 3803 
L 500 4441 
Q 881 4594 1212 4672 
Q 1544 4750 1819 4750 
Q 2544 4750 2975 4387 
Q 3406 4025 3406 3419 
Q 3406 3131 3298 2873 
Q 3191 2616 2906 2266 
Q 2828 2175 2409 1742 
Q 1991 1309 1228 531 
z
" transform="scale(0.015625)"/>
        <path id="DejaVuSans-35" d="M 691 4666 
L 3169 4666 
L 3169 4134 
L 1269 4134 
L 1269 2991 
Q 1406 3038 1543 3061 
Q 1681 3084 1819 3084 
Q 2600 3084 3056 2656 
Q 3513 2228 3513 1497 
Q 3513 744 3044 326 
Q 2575 -91 1722 -91 
Q 1428 -91 1123 -41 
Q 819 9 494 109 
L 494 744 
Q 775 591 1075 516 
Q 1375 441 1709 441 
Q 2250 441 2565 725 
Q 2881 1009 2881 1497 
Q 2881 1984 2565 2268 
Q 2250 2553 1709 2553 
Q 1456 2553 1204 2497 
Q 953 2441 691 2322 
L 691 4666 
z
" transform="scale(0.015625)"/>
       </defs>
       <use xlink:href="#DejaVuSans-32"/>
       <use xlink:href="#DejaVuSans-2e" x="63.623047"/>
       <use xlink:href="#DejaVuSans-35" x="95.410156"/>
      </g>
     </g>
    </g>
    <g id="xtick_3">
     <g id="line2d_3">
      <g>
       <use xlink:href="#mb9457f7cf7" x="145.312743" y="252" style="stroke: #000000; stroke-width: 0.8"/>
      </g>
     </g>
     <g id="text_3">
      <!-- 5.0 -->
      <g transform="translate(137.36118 266.598437)scale(0.1 -0.1)">
       <use xlink:href="#DejaVuSans-35"/>
       <use xlink:href="#DejaVuSans-2e" x="63.623047"/>
       <use xlink:href="#DejaVuSans-30" x="95.410156"/>
      </g>
     </g>
    </g>
    <g id="xtick_4">
     <g id="line2d_4">
      <g>
       <use xlink:href="#mb9457f7cf7" x="183.356366" y="252" style="stroke: #000000; stroke-width: 0.8"/>
      </g>
     </g>
     <g id="text_4">
      <!-- 7.5 -->
      <g transform="translate(175.404803 266.598437)scale(0.1 -0.1)">
       <defs>
        <path id="DejaVuSans-37" d="M 525 4666 
L 3525 4666 
L 3525 4397 
L 1831 0 
L 1172 0 
L 2766 4134 
L 525 4134 
L 525 4666 
z
" transform="scale(0.015625)"/>
       </defs>
       <use xlink:href="#DejaVuSans-37"/>
       <use xlink:href="#DejaVuSans-2e" x="63.623047"/>
       <use xlink:href="#DejaVuSans-35" x="95.410156"/>
      </g>
     </g>
    </g>
    <g id="xtick_5">
     <g id="line2d_5">
      <g>
       <use xlink:href="#mb9457f7cf7" x="221.399989" y="252" style="stroke: #000000; stroke-width: 0.8"/>
      </g>
     </g>
     <g id="text_5">
      <!-- 10.0 -->
      <g transform="translate(210.267177 266.598437)scale(0.1 -0.1)">
       <defs>
        <path id="DejaVuSans-31" d="M 794 531 
L 1825 531 
L 1825 4091 
L 703 3866 
L 703 4441 
L 1819 4666 
L 2450 4666 
L 2450 531 
L 3481 531 
L 3481 0 
L 794 0 
L 794 531 
z
" transform="scale(0.015625)"/>
       </defs>
       <use xlink:href="#DejaVuSans-31"/>
       <use xlink:href="#DejaVuSans-30" x="63.623047"/>
       <use xlink:href="#DejaVuSans-2e" x="127.246094"/>
       <use xlink:href="#DejaVuSans-30" x="159.033203"/>
      </g>
     </g>
    </g>
    <g id="xtick_6">
     <g id="line2d_6">
      <g>
       <use xlink:href="#mb9457f7cf7" x="259.443613" y="252" style="stroke: #000000; stroke-width: 0.8"/>
      </g>
     </g>
     <g id="text_6">
      <!-- 12.5 -->
      <g transform="translate(248.3108 266.598437)scale(0.1 -0.1)">
       <use xlink:href="#DejaVuSans-31"/>
       <use xlink:href="#DejaVuSans-32" x="63.623047"/>
       <use xlink:href="#DejaVuSans-2e" x="127.246094"/>
       <use xlink:href="#DejaVuSans-35" x="159.033203"/>
      </g>
     </g>
    </g>
    <g id="xtick_7">
     <g id="line2d_7">
      <g>
       <use xlink:href="#mb9457f7cf7" x="297.487236" y="252" style="stroke: #000000; stroke-width: 0.8"/>
      </g>
     </g>
     <g id="text_7">
      <!-- 15.0 -->
      <g transform="translate(286.354424 266.598437)scale(0.1 -0.1)">
       <use xlink:href="#DejaVuSans-31"/>
       <use xlink:href="#DejaVuSans-35" x="63.623047"/>
       <use xlink:href="#DejaVuSans-2e" x="127.246094"/>
       <use xlink:href="#DejaVuSans-30" x="159.033203"/>
      </g>
     </g>
    </g>
    <g id="xtick_8">
     <g id="line2d_8">
      <g>
       <use xlink:href="#mb9457f7cf7" x="335.53086" y="252" style="stroke: #000000; stroke-width: 0.8"/>
      </g>
     </g>
     <g id="text_8">
      <!-- 17.5 -->
      <g transform="translate(324.398047 266.598437)scale(0.1 -0.1)">
       <use xlink:href="#DejaVuSans-31"/>
       <use xlink:href="#DejaVuSans-37" x="63.623047"/>
       <use xlink:href="#DejaVuSans-2e" x="127.246094"/>
       <use xlink:href="#DejaVuSans-35" x="159.033203"/>
      </g>
     </g>
    </g>
    <g id="xtick_9">
     <g id="line2d_9">
      <g>
       <use xlink:href="#mb9457f7cf7" x="373.574483" y="252" style="stroke: #000000; stroke-width: 0.8"/>
      </g>
     </g>
     <g id="text_9">
      <!-- 20.0 -->
      <g transform="translate(362.441671 266.598437)scale(0.1 -0.1)">
       <use xlink:href="#DejaVuSans-32"/>
       <use xlink:href="#DejaVuSans-30" x="63.623047"/>
       <use xlink:href="#DejaVuSans-2e" x="127.246094"/>
       <use xlink:href="#DejaVuSans-30" x="159.033203"/>
      </g>
     </g>
    </g>
   </g>
   <g id="matplotlib.axis_2">
    <g id="ytick_1">
     <g id="line2d_10">
      <defs>
       <path id="md4e8fd4bde" d="M 0 0 
L -3.5 0 
" style="stroke: #000000; stroke-width: 0.8"/>
      </defs>
      <g>
       <use xlink:href="#md4e8fd4bde" x="54" y="242.106492" style="stroke: #000000; stroke-width: 0.8"/>
      </g>
     </g>
     <g id="text_10">
      <!-- 0 -->
      <g transform="translate(40.6375 245.905711)scale(0.1 -0.1)">
       <use xlink:href="#DejaVuSans-30"/>
      </g>
     </g>
    </g>
    <g id="ytick_2">
     <g id="line2d_11">
      <g>
       <use xlink:href="#md4e8fd4bde" x="54" y="198.183816" style="stroke: #000000; stroke-width: 0.8"/>
      </g>
     </g>
     <g id="text_11">
      <!-- 2 -->
      <g transform="translate(40.6375 201.983035)scale(0.1 -0.1)">
       <use xlink:href="#DejaVuSans-32"/>
      </g>
     </g>
    </g>
    <g id="ytick_3">
     <g id="line2d_12">
      <g>
       <use xlink:href="#md4e8fd4bde" x="54" y="154.26114" style="stroke: #000000; stroke-width: 0.8"/>
      </g>
     </g>
     <g id="text_12">
      <!-- 4 -->
      <g transform="translate(40.6375 158.060359)scale(0.1 -0.1)">
       <defs>
        <path id="DejaVuSans-34" d="M 2419 4116 
L 825 1625 
L 2419 1625 
L 2419 4116 
z
M 2253 4666 
L 3047 4666 
L 3047 1625 
L 3713 1625 
L 3713 1100 
L 3047 1100 
L 3047 0 
L 2419 0 
L 2419 1100 
L 313 1100 
L 313 1709 
L 2253 4666 
z
" transform="scale(0.015625)"/>
       </defs>
       <use xlink:href="#DejaVuSans-34"/>
      </g>
     </g>
    </g>
    <g id="ytick_4">
     <g id="line2d_13">
      <g>
       <use xlink:href="#md4e8fd4bde" x="54" y="110.338464" style="stroke: #000000; stroke-width: 0.8"/>
      </g>
     </g>
     <g id="text_13">
      <!-- 6 -->
      <g transform="translate(40.6375 114.137683)scale(0.1 -0.1)">
       <defs>
        <path id="DejaVuSans-36" d="M 2113 2584 
Q 1688 2584 1439 2293 
Q 1191 2003 1191 1497 
Q 1191 994 1439 701 
Q 1688 409 2113 409 
Q 2538 409 2786 701 
Q 3034 994 3034 1497 
Q 3034 2003 2786 2293 
Q 2538 2584 2113 2584 
z
M 3366 4563 
L 3366 3988 
Q 3128 4100 2886 4159 
Q 2644 4219 2406 4219 
Q 1781 4219 1451 3797 
Q 1122 3375 1075 2522 
Q 1259 2794 1537 2939 
Q 1816 3084 2150 3084 
Q 2853 3084 3261 2657 
Q 3669 2231 3669 1497 
Q 3669 778 3244 343 
Q 2819 -91 2113 -91 
Q 1303 -91 875 529 
Q 447 1150 447 2328 
Q 447 3434 972 4092 
Q 1497 4750 2381 4750 
Q 2619 4750 2861 4703 
Q 3103 4656 3366 4563 
z
" transform="scale(0.015625)"/>
       </defs>
       <use xlink:href="#DejaVuSans-36"/>
      </g>
     </g>
    </g>
    <g id="ytick_5">
     <g id="line2d_14">
      <g>
       <use xlink:href="#md4e8fd4bde" x="54" y="66.415788" style="stroke: #000000; stroke-width: 0.8"/>
      </g>
     </g>
     <g id="text_14">
      <!-- 8 -->
      <g transform="translate(40.6375 70.215007)scale(0.1 -0.1)">
       <defs>
        <path id="DejaVuSans-38" d="M 2034 2216 
Q 1584 2216 1326 1975 
Q 1069 1734 1069 1313 
Q 1069 891 1326 650 
Q 1584 409 2034 409 
Q 2484 409 2743 651 
Q 3003 894 3003 1313 
Q 3003 1734 2745 1975 
Q 2488 2216 2034 2216 
z
M 1403 2484 
Q 997 2584 770 2862 
Q 544 3141 544 3541 
Q 544 4100 942 4425 
Q 1341 4750 2034 4750 
Q 2731 4750 3128 4425 
Q 3525 4100 3525 3541 
Q 3525 3141 3298 2862 
Q 3072 2584 2669 2484 
Q 3125 2378 3379 2068 
Q 3634 1759 3634 1313 
Q 3634 634 3220 271 
Q 2806 -91 2034 -91 
Q 1263 -91 848 271 
Q 434 634 434 1313 
Q 434 1759 690 2068 
Q 947 2378 1403 2484 
z
M 1172 3481 
Q 1172 3119 1398 2916 
Q 1625 2713 2034 2713 
Q 2441 2713 2670 2916 
Q 2900 3119 2900 3481 
Q 2900 3844 2670 4047 
Q 2441 4250 2034 4250 
Q 1625 4250 1398 4047 
Q 1172 3844 1172 3481 
z
" transform="scale(0.015625)"/>
       </defs>
       <use xlink:href="#DejaVuSans-38"/>
      </g>
     </g>
    </g>
   </g>
   <g id="line2d_15">
    <path d="M 206.18254 88.377126 
L 195.124217 136.254184 
" clip-path="url(#p3d0929ca77)" style="fill: none; stroke: #000000; stroke-width: 1.5; stroke-linecap: square"/>
   </g>
   <g id="line2d_16">
    <path d="M 130.095293 44.45445 
L 130.095293 98.362108 
" clip-path="url(#p3d0929ca77)" style="fill: none; stroke: #000000; stroke-width: 1.5; stroke-linecap: square"/>
   </g>
   <g id="line2d_17">
    <path d="M 69.225496 66.415788 
L 102.465081 74.881137 
" clip-path="url(#p3d0929ca77)" style="fill: none; stroke: #000000; stroke-width: 1.5; stroke-linecap: square"/>
   </g>
   <g id="line2d_18">
    <path d="M 190.965091 88.377126 
L 227.616663 98.956002 
" clip-path="url(#p3d0929ca77)" style="fill: none; stroke: #000000; stroke-width: 1.5; stroke-linecap: square"/>
   </g>
   <g id="line2d_19">
    <path d="M 69.225496 88.377126 
L 101.721456 99.199542 
" clip-path="url(#p3d0929ca77)" style="fill: none; stroke: #000000; stroke-width: 1.5; stroke-linecap: square"/>
   </g>
   <g id="line2d_20">
    <path d="M 190.965091 88.377126 
L 150.906642 113.153301 
" clip-path="url(#p3d0929ca77)" style="fill: none; stroke: #000000; stroke-width: 1.5; stroke-linecap: square"/>
   </g>
   <g id="line2d_21">
    <path d="M 130.095293 66.415788 
L 130.095293 110.678848 
" clip-path="url(#p3d0929ca77)" style="fill: none; stroke: #000000; stroke-width: 1.5; stroke-linecap: square"/>
   </g>
   <g id="line2d_22">
    <path d="M 130.095293 88.377126 
L 173.278814 106.183149 
" clip-path="url(#p3d0929ca77)" style="fill: none; stroke: #000000; stroke-width: 1.5; stroke-linecap: square"/>
   </g>
   <g id="line2d_23">
    <path d="M 236.617439 88.377126 
L 211.958127 141.758426 
" clip-path="url(#p3d0929ca77)" style="fill: none; stroke: #000000; stroke-width: 1.5; stroke-linecap: square"/>
   </g>
   <g id="line2d_24">
    <path d="M 84.442945 44.45445 
L 111.783862 51.417545 
" clip-path="url(#p3d0929ca77)" style="fill: none; stroke: #000000; stroke-width: 1.5; stroke-linecap: square"/>
   </g>
   <g id="line2d_25">
    <path d="M 297.487236 88.377126 
L 288.633624 126.708881 
" clip-path="url(#p3d0929ca77)" style="fill: none; stroke: #000000; stroke-width: 1.5; stroke-linecap: square"/>
   </g>
   <g id="line2d_26">
    <path d="M 327.922135 44.45445 
L 341.363176 73.550973 
" clip-path="url(#p3d0929ca77)" style="fill: none; stroke: #000000; stroke-width: 1.5; stroke-linecap: square"/>
   </g>
   <g id="line2d_27">
    <path d="M 312.704686 88.377126 
L 282.500863 102.906857 
" clip-path="url(#p3d0929ca77)" style="fill: none; stroke: #000000; stroke-width: 1.5; stroke-linecap: square"/>
   </g>
   <g id="line2d_28">
    <path d="M 327.922135 66.415788 
L 295.85042 77.987007 
" clip-path="url(#p3d0929ca77)" style="fill: none; stroke: #000000; stroke-width: 1.5; stroke-linecap: square"/>
   </g>
   <g id="line2d_29">
    <path d="M 206.18254 44.45445 
L 252.485598 64.501379 
" clip-path="url(#p3d0929ca77)" style="fill: none; stroke: #000000; stroke-width: 1.5; stroke-linecap: square"/>
   </g>
   <g id="line2d_30">
    <path d="M 221.399989 88.377126 
L 238.809763 126.064972 
" clip-path="url(#p3d0929ca77)" style="fill: none; stroke: #000000; stroke-width: 1.5; stroke-linecap: square"/>
   </g>
   <g id="line2d_31">
    <path d="M 358.357034 88.377126 
L 344.61192 108.213636 
" clip-path="url(#p3d0929ca77)" style="fill: none; stroke: #000000; stroke-width: 1.5; stroke-linecap: square"/>
   </g>
   <g id="line2d_32">
    <path d="M 312.704686 88.377126 
L 270.702187 108.582682 
" clip-path="url(#p3d0929ca77)" style="fill: none; stroke: #000000; stroke-width: 1.5; stroke-linecap: square"/>
   </g>
   <g id="line2d_33">
    <path d="M 297.487236 44.45445 
L 268.463308 77.963576 
" clip-path="url(#p3d0929ca77)" style="fill: none; stroke: #000000; stroke-width: 1.5; stroke-linecap: square"/>
   </g>
   <g id="line2d_34">
    <path d="M 236.617439 44.45445 
L 260.070234 86.762358 
" clip-path="url(#p3d0929ca77)" style="fill: none; stroke: #000000; stroke-width: 1.5; stroke-linecap: square"/>
   </g>
   <g id="line2d_35">
    <path d="M 69.225496 242.106492 
L 195.124217 136.254184 
" clip-path="url(#p3d0929ca77)" style="fill: none; stroke: #808080; stroke-width: 1.5; stroke-linecap: square"/>
   </g>
   <g id="line2d_36">
    <path d="M 69.225496 242.106492 
L 130.095293 98.362108 
" clip-path="url(#p3d0929ca77)" style="fill: none; stroke: #808080; stroke-width: 1.5; stroke-linecap: square"/>
   </g>
   <g id="line2d_37">
    <path d="M 69.225496 242.106492 
L 102.465081 74.881137 
" clip-path="url(#p3d0929ca77)" style="fill: none; stroke: #808080; stroke-width: 1.5; stroke-linecap: square"/>
   </g>
   <g id="line2d_38">
    <path d="M 69.225496 242.106492 
L 227.616663 98.956002 
" clip-path="url(#p3d0929ca77)" style="fill: none; stroke: #808080; stroke-width: 1.5; stroke-linecap: square"/>
   </g>
   <g id="line2d_39">
    <path d="M 69.225496 242.106492 
L 101.721456 99.199542 
" clip-path="url(#p3d0929ca77)" style="fill: none; stroke: #808080; stroke-width: 1.5; stroke-linecap: square"/>
   </g>
   <g id="line2d_40">
    <path d="M 69.225496 242.106492 
L 150.906642 113.153301 
" clip-path="url(#p3d0929ca77)" style="fill: none; stroke: #808080; stroke-width: 1.5; stroke-linecap: square"/>
   </g>
   <g id="line2d_41">
    <path d="M 69.225496 242.106492 
L 130.095293 110.678848 
" clip-path="url(#p3d0929ca77)" style="fill: none; stroke: #808080; stroke-width: 1.5; stroke-linecap: square"/>
   </g>
   <g id="line2d_42">
    <path d="M 69.225496 242.106492 
L 173.278814 106.183149 
" clip-path="url(#p3d0929ca77)" style="fill: none; stroke: #808080; stroke-width: 1.5; stroke-linecap: square"/>
   </g>
   <g id="line2d_43">
    <path d="M 69.225496 242.106492 
L 211.958127 141.758426 
" clip-path="url(#p3d0929ca77)" style="fill: none; stroke: #808080; stroke-width: 1.5; stroke-linecap: square"/>
   </g>
   <g id="line2d_44">
    <path d="M 69.225496 242.106492 
L 111.783862 51.417545 
" clip-path="url(#p3d0929ca77)" style="fill: none; stroke: #808080; stroke-width: 1.5; stroke-linecap: square"/>
   </g>
   <g id="line2d_45">
    <path d="M 373.574483 242.106492 
L 288.633624 126.708881 
" clip-path="url(#p3d0929ca77)" style="fill: none; stroke: #808080; stroke-width: 1.5; stroke-linecap: square"/>
   </g>
   <g id="line2d_46">
    <path d="M 373.574483 242.106492 
L 341.363176 73.550973 
" clip-path="url(#p3d0929ca77)" style="fill: none; stroke: #808080; stroke-width: 1.5; stroke-linecap: square"/>
   </g>
   <g id="line2d_47">
    <path d="M 373.574483 242.106492 
L 282.500863 102.906857 
" clip-path="url(#p3d0929ca77)" style="fill: none; stroke: #808080; stroke-width: 1.5; stroke-linecap: square"/>
   </g>
   <g id="line2d_48">
    <path d="M 373.574483 242.106492 
L 295.85042 77.987007 
" clip-path="url(#p3d0929ca77)" style="fill: none; stroke: #808080; stroke-width: 1.5; stroke-linecap: square"/>
   </g>
   <g id="line2d_49">
    <path d="M 373.574483 242.106492 
L 252.485598 64.501379 
" clip-path="url(#p3d0929ca77)" style="fill: none; stroke: #808080; stroke-width: 1.5; stroke-linecap: square"/>
   </g>
   <g id="line2d_50">
    <path d="M 373.574483 242.106492 
L 238.809763 126.064972 
" clip-path="url(#p3d0929ca77)" style="fill: none; stroke: #808080; stroke-width: 1.5; stroke-linecap: square"/>
   </g>
   <g id="line2d_51">
    <path d="M 373.574483 242.106492 
L 344.61192 108.213636 
" clip-path="url(#p3d0929ca77)" style="fill: none; stroke: #808080; stroke-width: 1.5; stroke-linecap: square"/>
   </g>
   <g id="line2d_52">
    <path d="M 373.574483 242.106492 
L 270.702187 108.582682 
" clip-path="url(#p3d0929ca77)" style="fill: none; stroke: #808080; stroke-width: 1.5; stroke-linecap: square"/>
   </g>
   <g id="line2d_53">
    <path d="M 373.574483 242.106492 
L 268.463308 77.963576 
" clip-path="url(#p3d0929ca77)" style="fill: none; stroke: #808080; stroke-width: 1.5; stroke-linecap: square"/>
   </g>
   <g id="line2d_54">
    <path d="M 373.574483 242.106492 
L 260.070234 86.762358 
" clip-path="url(#p3d0929ca77)" style="fill: none; stroke: #808080; stroke-width: 1.5; stroke-linecap: square"/>
   </g>
   <g id="patch_63">
    <path d="M 54 252 
L 54 34.56 
" style="fill: none; stroke: #000000; stroke-width: 0.8; stroke-linejoin: miter; stroke-linecap: square"/>
   </g>
   <g id="patch_64">
    <path d="M 388.8 252 
L 388.8 34.56 
" style="fill: none; stroke: #000000; stroke-width: 0.8; stroke-linejoin: miter; stroke-linecap: square"/>
   </g>
   <g id="patch_65">
    <path d="M 54 252 
L 388.8 252 
" style="fill: none; stroke: #000000; stroke-width: 0.8; stroke-linejoin: miter; stroke-linecap: square"/>
   </g>
   <g id="patch_66">
    <path d="M 54 34.56 
L 388.8 34.56 
" style="fill: none; stroke: #000000; stroke-width: 0.8; stroke-linejoin: miter; stroke-linecap: square"/>
   </g>
  </g>
 </g>
 <defs>
  <clipPath id="p3d0929ca77">
   <rect x="54" y="34.56" width="334.8" height="217.44"/>
  </clipPath>
 </defs>
</svg>
